[IMG]http://img823.imageshack.us/img823/2607/mv5bndc2odg2ndm4nf5bml5.jpg[/IMG]


In IJsland vindt een enorme vulkaanuitbarsting plaats. Het gevolg daarvan is dat een gigantische gletsjer met zeer grote snelheid naar het noorden van de Verenigde Staten drijft. Een gezin zet alles op alles om te ontsnappen aan de grote ramp die er zal plaatsvinden. Een nieuwe ijstijd lijkt op komst.

Iceland is a huge volcanic eruption. The result is that a giant glacier with very high speed to the north of the United States drives. A family does everything to escape the great disaster that will occur. A new ice age seems to come.


------------------ Dutch Friends ------------------
You can find my Friends at: http://www.Film-Test.nl
------ They got my dutchs subs ---- and more ------

General
Complete name : C:\\\\Users\\\\larrgoo\\\\Documents\\\\ice age 2012\\\\ice age 2012.avi
Format : AVI
Format/Info : Audio Video Interleave
File size : 1.37 GiB
Duration : 1h 31mn
Overall bit rate : 2 146 Kbps

Video
ID : 0
Format : MPEG-4 Visual
Format profile : Simple@L3
Format settings, BVOP : No
Format settings, QPel : No
Format settings, GMC : No warppoints
Format settings, Matrix : Default (H.263)
Codec ID : XVID
Codec ID/Hint : XviD
Duration : 1h 31mn
Bit rate : 1 687 Kbps
Width : 704 pixels
Height : 400 pixels
Display aspect ratio : 16:9
Frame rate : 23.976 fps
Color space : YUV
Chroma subsampling : 4:2:0
Bit depth : 8 bits
Scan type : Progressive
Compression mode : Lossy
Bits/(Pixel*Frame) : 0.250
Stream size : 1.08 GiB (79%)
Writing library : XviD 1.1.2 (UTC 2006-11-01)

Audio
ID : 1
Format : AC-3
Format/Info : Audio Coding 3
Mode extension : CM (complete main)
Codec ID : 2000
Duration : 1h 31mn
Bit rate mode : Constant
Bit rate : 448 Kbps
Channel(s) : 6 channels
Channel positions : Front: L C R, Side: L R, LFE
Sampling rate : 48.0 KHz
Bit depth : 16 bits
Compression mode : Lossy
Stream size : 293 MiB (21%)
Alignment : Aligned on interleaves
Interleave, duration : 32 ms (0.77 video frame)
Interleave, preload duration : 640 ms